STARTFONT 2.1
COMMENT 
COMMENT  Copyright 1989 by Sun Microsystems, Inc. Mountain View, CA.
COMMENT 
COMMENT  Permission to use, copy, modify, and distribute this software and
COMMENT  its documentation for any purpose and without fee is hereby granted,
COMMENT  provided that the above copyright notices appear in all copies and
COMMENT  that both those copyright notices and this permission notice appear
COMMENT  in supporting documentation, and that the name of Sun Microsystems
COMMENT  not be used in advertising or publicity pertaining to distribution
COMMENT  of the software without specific, written prior permission.  Sun
COMMENT  Microsystems make no representations about the suitability of this
COMMENT  software for any purpose.  It is provided "as is" without express or
COMMENT  implied warranty.
COMMENT 
COMMENT  SUN MICROSYSTEMS DISCLAIM ALL WARRANTIES WITH REGARD TO THIS
COMMENT  SOFTWARE, INCLUDING ALL IMPLIED WARRANTIES OF MERCHANTABILITY AND
COMMENT  FITNESS, IN NO EVENT SHALL SUN MICROSYSTEMS BE LIABLE FOR ANY
COMMENT  SPECIAL, INDIRECT OR CONSEQUENTIAL DAMAGES OR ANY DAMAGES WHATSOEVER
COMMENT  RESULTING FROM LOSS OF USE, DATA OR PROFITS, WHETHER IN AN ACTION OF
COMMENT  CONTRACT, NEGLIGENCE OR OTHER TORTIOUS ACTION, ARISING OUT OF OR IN
COMMENT  CONNECTION WITH THE USE OR PERFORMANCE OF THIS SOFTWARE.
COMMENT 
COMMENT  ** Open Look Glyph Font, 12-pt **
COMMENT
FONT olglyph-12
SIZE 12 78 78
FONTBOUNDINGBOX 47 47 0 0
STARTPROPERTIES 2
FONT_DESCENT 47
FONT_ASCENT 0
ENDPROPERTIES
CHARS 23
STARTCHAR VerticalScrollbarElevator
ENCODING 1
SWIDTH 96 0
DWIDTH 16 0
BBX 15 47 0 -47
BITMAP
7FFC
8006
8006
8006
8006
8306
8786
8FC6
9FE6
9FE6
8006
8006
8006
8006
8006
FFFE
8006
8006
8006
8006
8006
8006
8006
8006
8006
8006
8006
8006
8006
8006
FFFE
8006
8006
8006
8006
8006
9FE6
9FE6
8FC6
8786
8306
8006
8006
8006
8006
FFFE
7FFC
ENDCHAR
STARTCHAR VerticalScrollbarElevatorLineBackward
ENCODING 2
SWIDTH 96 0
DWIDTH 16 0
BBX 15 47 0 -47
BITMAP
7FFC
FFFE
FFFE
FFFE
FFFE
FCFE
F87E
F03E
E01E
E01E
FFFE
FFFE
FFFE
FFFE
FFFE
FFFE
8006
8006
8006
8006
8006
8006
8006
8006
8006
8006
8006
8006
8006
8006
FFFE
8006
8006
8006
8006
8006
9FE6
9FE6
8FC6
8786
8306
8006
8006
8006
8006
FFFE
7FFC
ENDCHAR
STARTCHAR VerticalScrollbarElevatorAbsolute
ENCODING 3
SWIDTH 96 0
DWIDTH 16 0
BBX 15 47 0 -47
BITMAP
7FFC
8006
8006
8006
8006
8306
8786
8FC6
9FE6
9FE6
8006
8006
8006
8006
8006
FFFE
FFFE
FFFE
FFFE
FFFE
FFFE
FFFE
FFFE
FFFE
FFFE
FFFE
FFFE
FFFE
FFFE
FFFE
FFFE
8006
8006
8006
8006
8006
9FE6
9FE6
8FC6
8786
8306
8006
8006
8006
8006
FFFE
7FFC
ENDCHAR
STARTCHAR VerticalScrollbarElevatorLineForward
ENCODING 4
SWIDTH 96 0
DWIDTH 16 0
BBX 15 47 0 -47
BITMAP
7FFC
8006
8006
8006
8006
8306
8786
8FC6
9FE6
9FE6
8006
8006
8006
8006
8006
FFFE
8006
8006
8006
8006
8006
8006
8006
8006
8006
8006
8006
8006
8006
8006
FFFE
FFFE
FFFE
FFFE
FFFE
FFFE
E01E
E01E
F03E
F87E
FCFE
FFFE
FFFE
FFFE
FFFE
FFFE
7FFC
ENDCHAR
STARTCHAR VerticalScrollbarReducedElevator
ENCODING 5
SWIDTH 96 0
DWIDTH 16 0
BBX 15 32 0 -32
BITMAP
7FFC
8006
8006
8006
8006
8306
8786
8FC6
9FE6
9FE6
8006
8006
8006
8006
8006
FFFE
8006
8006
8006
8006
8006
9FE6
9FE6
8FC6
8786
8306
8006
8006
8006
8006
FFFE
7FFC
ENDCHAR
STARTCHAR VerticalScrollbarReducedElevatorLineBackward
ENCODING 6
SWIDTH 96 0
DWIDTH 16 0
BBX 15 32 0 -32
BITMAP
7FFC
FFFE
FFFE
FFFE
FFFE
FCFE
F87E
F03E
E01E
E01E
FFFE
FFFE
FFFE
FFFE
FFFE
FFFE
8006
8006
8006
8006
8006
9FE6
9FE6
8FC6
8786
8306
8006
8006
8006
8006
FFFE
7FFC
ENDCHAR
STARTCHAR VerticalScrollbarReducedElevatorLineForward
ENCODING 7
SWIDTH 96 0
DWIDTH 16 0
BBX 15 32 0 -32
BITMAP
7FFC
8006
8006
8006
8006
8306
8786
8FC6
9FE6
9FE6
8006
8006
8006
8006
8006
FFFE
FFFE
FFFE
FFFE
FFFE
FFFE
E01E
E01E
F03E
F87E
FCFE
FFFE
FFFE
FFFE
FFFE
FFFE
7FFC
ENDCHAR
STARTCHAR VerticalScrollbarAnchor
ENCODING 8
SWIDTH 96 0
DWIDTH 16 0
BBX 15 6 0 -6
BITMAP
FFFE
8002
8002
8002
8002
FFFE
ENDCHAR
STARTCHAR VerticalScrollbarAnchorInverted
ENCODING 9
SWIDTH 96 0
DWIDTH 16 0
BBX 15 6 0 -6
BITMAP
FFFE
FFFE
FFFE
FFFE
FFFE
FFFE
ENDCHAR
STARTCHAR HorizontalScrollbarElevator
ENCODING 10
SWIDTH 96 0
DWIDTH 16 0
BBX 47 15 0 -15
BITMAP
7FFFFFFFFFFC
800100020006
800100020006
80c100020c06
81C100020e06
83C100020f06
87C100020F86
87C100020F86
83C100020F06
81C100020e06
80C100020c06
800100020006
800100020006
fffffffffffe
7FFFFFFFFFFC
ENDCHAR
STARTCHAR HorizontalScrollbarElevatorLineBackward
ENCODING 11
SWIDTH 96 0
DWIDTH 16 0
BBX 47 15 0 -15
BITMAP
7FFFFFFFFFFC
FFFF00020006
FFFF00020006
FF3F00020c06
Fe3F00020e06
Fc3F00020f06
F83F00020F86
F83F00020F86
Fc3F00020F06
Fe3F00020e06
Ff3F00020c06
FFfF00020006
FFFF00020006
FFFFfffffffe
7FFFFFFFFFFC
ENDCHAR
STARTCHAR HorizontalScrollbarElevatorAbsolute
ENCODING 12
SWIDTH 96 0
DWIDTH 16 0
BBX 47 15 0 -15
BITMAP
7FFFFFFFFFFC
8001FFFe0006
8001FFFE0006
80c1FFFE0c06
81C1FFFE0e06
83C1FFFE0f06
87C1FFFE0F86
87C1FFFE0F86
83C1FFFE0F06
81C1FFFE0e06
80C1FFFE0c06
8001FFFE0006
8001FFFE0006
ffffFFFffffe
7FFFFFFFFFFC
ENDCHAR
STARTCHAR HorizontalScrollbarElevatorLineForward
ENCODING 13
SWIDTH 96 0
DWIDTH 16 0
BBX 47 15 0 -15
BITMAP
7FFFFFFFFFFC
80010003FFFE
80010003FFFE
80c10003F3FE
81C10003F1FE
83C10003F0FE
87C10003F07E
87C10003F07E
83C10003F0fE
81C10003F1FE
80C10003F3FE
80010003FfFE
80010003FFFE
ffffffffFFFE
7FFFFFFFFFFC
ENDCHAR
STARTCHAR HorizontalScrollbarReducedElevator
ENCODING 14
SWIDTH 96 0
DWIDTH 16 0
BBX 32 15 0 -15
BITMAP
7FFFFFFE
80010003
80010003
80c10603
81C10703
83C10783
87C107c3
87C107C3
83C10783
81C10703
80C10603
80010003
80010003
ffffffff
7FFFFFFE
ENDCHAR
STARTCHAR HorizontalScrollbarReducedElevatorLineBackward
ENCODING 15
SWIDTH 96 0
DWIDTH 16 0
BBX 32 15 0 -15
BITMAP
7FFFFFFE
FFFF0003
FFFF0003
FF3F0603
Fe3F0703
Fc3F0783
F83F07c3
F83F07C3
Fc3F0783
Fe3F0703
Ff3F0603
FFfF0003
FFFF0003
FFFFffff
7FFFFFFE
ENDCHAR
STARTCHAR HorizontalScrollbarReducedElevatorLineForward
ENCODING 16
SWIDTH 96 0
DWIDTH 16 0
BBX 32 15 0 -15
BITMAP
7FFFFFFE
8001FFFF
8001FFFF
80c1F9FF
81C1F8FF
83C1F87F
87C1F83F
87C1F83F
83C1F87F
81C1F8fF
80C1F9FF
8001FfFF
8001FFFF
ffffFFFF
7FFFFFFE
ENDCHAR
STARTCHAR HorizontalScrollbarAnchor
ENCODING 17
SWIDTH 96 0
DWIDTH 16 0
BBX 6 15 0 -15
BITMAP
FC
84
84
84
84
84
84
84
84
84
84
84
84
84
FC
ENDCHAR
STARTCHAR HorizontalScrollbarAnchorInverted
ENCODING 18
SWIDTH 96 0
DWIDTH 16 0
BBX 6 15 0 -15
BITMAP
FC
FC
FC
FC
FC
FC
FC
FC
FC
FC
FC
FC
FC
FC
FC
ENDCHAR
STARTCHAR MenuPushpinOut
ENCODING 19
SWIDTH 96 0
DWIDTH 16 0
BBX 32 16 0 -16
BITMAP
00000000
00000000
00000000
00000000
00070000
00048180
00048240
0004FE40
00048240
07FC8240
03FC8240
0004FE40
6004FFC0
900783C0
90078180
60070000
ENDCHAR
STARTCHAR MenuPushpinIn
ENCODING 20
SWIDTH 96 0
DWIDTH 16 0
BBX 32 16 0 -16
BITMAP
00000000
00000000
00000000
01C00000
0E300000
34100000
48080000
48080000
88080000
8C100000
86300000
C7F00000
41E00000
70E00000
FFC00000
CF000000
ENDCHAR
STARTCHAR MenuDefaultPushpinOut
ENCODING 21
SWIDTH 96 0
DWIDTH 16 0
BBX 32 16 0 -16
BITMAP
0000E000
0000900E
00008811
00008FF1
00008011
00008001
00008001
01FF8001
3CFF8001
42008011
99008FF1
A5008811
A500900E
9900E000
42000000
3C000000
ENDCHAR
STARTCHAR AbbreviatedMenuButton
ENCODING 22
SWIDTH 96 0
DWIDTH 16 0
BBX 16 15 0 -15
BITMAP
7FFC
8002
8003
8003
8fe3
8823
8443
8443
8283
8283
8103
8003
8003
7FFF
3FFE
ENDCHAR
STARTCHAR AbbreviatedMenuButtonInverted
ENCODING 23
SWIDTH 96 0
DWIDTH 16 0
BBX 16 15 0 -15
BITMAP
7FFC
8002
BFFB
bffB
b01B
B7dB
BbbB
BbbB
Bd7B
Bd7B
BefB
BfFB
8003
7FFF
3FFE
ENDCHAR
ENDFONT
